<svg xmlns="http://www.w3.org/2000/svg" viewBox="0 0 640 360">
  <defs>
    <linearGradient id="bg" x1="0" y1="0" x2="0" y2="1">
      <stop offset="0%" stop-color="#0b1520"/>
      <stop offset="100%" stop-color="#061018"/>
    </linearGradient>
    <linearGradient id="multiA" x1="0" y1="0" x2="0" y2="1">
      <stop offset="0%" stop-color="#ff5f86"/>
      <stop offset="25%" stop-color="#6f9eff"/>
      <stop offset="50%" stop-color="#f5f8ff"/>
      <stop offset="75%" stop-color="#78f2ff"/>
      <stop offset="100%" stop-color="#ff85ea"/>
    </linearGradient>
    <linearGradient id="multiB" x1="0" y1="0" x2="0" y2="1">
      <stop offset="0%" stop-color="#ff78a4"/>
      <stop offset="28%" stop-color="#89b1ff"/>
      <stop offset="56%" stop-color="#ffffff"/>
      <stop offset="78%" stop-color="#97f8ff"/>
      <stop offset="100%" stop-color="#ffacf1"/>
    </linearGradient>
    <filter id="glow" x="-30%" y="-30%" width="160%" height="160%">
      <feGaussianBlur stdDeviation="4.5" result="blur"/>
      <feMerge>
        <feMergeNode in="blur"/>
        <feMergeNode in="SourceGraphic"/>
      </feMerge>
    </filter>
  </defs>

  <rect width="640" height="360" rx="32" fill="url(#bg)"/>
  <rect x="34" y="34" width="572" height="292" rx="26" fill="#07111a" stroke="rgba(255,255,255,0.06)"/>

  <g fill="none" stroke-linecap="round" filter="url(#glow)">
    <path stroke="url(#multiA)" stroke-width="3.2" opacity="0.96"
      d="M47 34
         C47 84 48 128 48 150
         C48 164 66 172 76 180
         C66 188 48 196 48 210
         C48 240 47 284 47 326">
      <animate attributeName="d"
        values="
        M47 34 C47 84 48 128 48 150 C48 164 66 172 76 180 C66 188 48 196 48 210 C48 240 47 284 47 326;
        M47 34 C47 84 48 132 48 154 C48 166 78 174 92 180 C78 186 48 194 48 206 C48 236 47 280 47 326;
        M47 34 C47 84 48 128 48 150 C48 164 66 172 76 180 C66 188 48 196 48 210 C48 240 47 284 47 326"
        dur="2.8s" repeatCount="indefinite"/>
    </path>

    <path stroke="url(#multiB)" stroke-width="1.9" opacity="0.62"
      d="M54 34
         C54 88 54 134 54 156
         C54 166 66 174 72 180
         C66 186 54 194 54 204
         C54 232 54 278 54 326">
      <animate attributeName="d"
        values="
        M54 34 C54 88 54 134 54 156 C54 166 66 174 72 180 C66 186 54 194 54 204 C54 232 54 278 54 326;
        M54 34 C54 88 54 136 54 158 C54 168 74 176 82 180 C74 184 54 192 54 202 C54 230 54 276 54 326;
        M54 34 C54 88 54 134 54 156 C54 166 66 174 72 180 C66 186 54 194 54 204 C54 232 54 278 54 326"
        dur="2.8s" begin="-0.32s" repeatCount="indefinite"/>
    </path>

    <path stroke="url(#multiA)" stroke-width="3.2" opacity="0.96"
      d="M593 34
         C593 84 592 128 592 150
         C592 164 574 172 564 180
         C574 188 592 196 592 210
         C592 240 593 284 593 326">
      <animate attributeName="d"
        values="
        M593 34 C593 84 592 128 592 150 C592 164 574 172 564 180 C574 188 592 196 592 210 C592 240 593 284 593 326;
        M593 34 C593 84 592 132 592 154 C592 166 562 174 548 180 C562 186 592 194 592 206 C592 236 593 280 593 326;
        M593 34 C593 84 592 128 592 150 C592 164 574 172 564 180 C574 188 592 196 592 210 C592 240 593 284 593 326"
        dur="2.8s" repeatCount="indefinite"/>
    </path>

    <path stroke="url(#multiB)" stroke-width="1.9" opacity="0.62"
      d="M586 34
         C586 88 586 134 586 156
         C586 166 574 174 568 180
         C574 186 586 194 586 204
         C586 232 586 278 586 326">
      <animate attributeName="d"
        values="
        M586 34 C586 88 586 134 586 156 C586 166 574 174 568 180 C574 186 586 194 586 204 C586 232 586 278 586 326;
        M586 34 C586 88 586 136 586 158 C586 168 566 176 558 180 C566 184 586 192 586 202 C586 230 586 276 586 326;
        M586 34 C586 88 586 134 586 156 C586 166 574 174 568 180 C574 186 586 194 586 204 C586 232 586 278 586 326"
        dur="2.8s" begin="-0.32s" repeatCount="indefinite"/>
    </path>

    <path stroke="url(#multiA)" stroke-width="2.4" opacity="0.44"
      d="M34 314
         C106 314 184 314 254 314
         C286 314 304 296 320 286
         C336 296 354 314 386 314
         C456 314 534 314 606 314">
      <animate attributeName="d"
        values="
        M34 314 C106 314 184 314 254 314 C286 314 304 296 320 286 C336 296 354 314 386 314 C456 314 534 314 606 314;
        M34 314 C106 314 184 314 254 314 C286 314 304 282 320 270 C336 282 354 314 386 314 C456 314 534 314 606 314;
        M34 314 C106 314 184 314 254 314 C286 314 304 296 320 286 C336 296 354 314 386 314 C456 314 534 314 606 314"
        dur="2.8s" begin="-0.18s" repeatCount="indefinite"/>
    </path>

    <path stroke="url(#multiB)" stroke-width="1.5" opacity="0.26"
      d="M34 305
         C112 305 190 305 260 305
         C292 305 306 294 320 286
         C334 294 348 305 380 305
         C450 305 528 305 606 305">
      <animate attributeName="d"
        values="
        M34 305 C112 305 190 305 260 305 C292 305 306 294 320 286 C334 294 348 305 380 305 C450 305 528 305 606 305;
        M34 305 C112 305 190 305 260 305 C292 305 306 284 320 276 C334 284 348 305 380 305 C450 305 528 305 606 305;
        M34 305 C112 305 190 305 260 305 C292 305 306 294 320 286 C334 294 348 305 380 305 C450 305 528 305 606 305"
        dur="2.8s" begin="-0.42s" repeatCount="indefinite"/>
    </path>
  </g>
</svg>
